<?xml version="1.0" encoding="UTF-8" standalone="no"?>
<svg width="98px" height="34px" viewBox="0 0 98 34" version="1.1" xmlns="http://www.w3.org/2000/svg" xmlns:xlink="http://www.w3.org/1999/xlink" xmlns:sketch="http://www.bohemiancoding.com/sketch/ns">
    <!-- Generator: Sketch 3.3.3 (12072) - http://www.bohemiancoding.com/sketch -->
    <title>Group</title>
    <desc>Created with Sketch.</desc>
    <defs></defs>
    <g id="HEADER-DESİGN" stroke="none" stroke-width="1" fill="none" fill-rule="evenodd" sketch:type="MSPage">
        <g id="HEADER" sketch:type="MSArtboardGroup" transform="translate(-92.000000, -48.000000)" fill="#03467B">
            <g id="Group-+-JEAN--------KADIN---" sketch:type="MSLayerGroup" transform="translate(92.000000, 48.000000)">
                <g id="Group" sketch:type="MSShapeGroup">
                    <path d="M0.0187784431,33.3941637 L9.09013573,33.3941637 L9.09013573,20.3087368 C9.09013573,17.7941287 9.8690499,15.9780117 12.1598244,15.9780117 C14.9087146,15.9780117 15.1377725,18.0269591 15.1377725,20.3087368 L15.1377725,33.3941637 L24.2091297,33.3941637 L24.2091297,20.3087368 C24.2091297,17.7941287 24.9880439,15.9780117 27.2788184,15.9780117 C30.027513,15.9780117 30.2567665,18.0269591 30.2567665,20.3087368 L30.2567665,33.3941637 L39.3281238,33.3941637 L39.3281238,16.8162807 C39.3281238,12.9044912 37.2664072,8.6202924 31.172998,8.6202924 C25.2628743,8.6202924 23.4302156,12.1127485 23.0636447,12.3923041 C21.9641277,9.97074854 19.2152375,8.6202924 16.6496327,8.6202924 C13.3508862,8.6202924 10.6937365,9.6448655 8.86107784,12.4388304 L8.76953293,12.4388304 L8.76953293,9.22573099 L0.0187784431,9.22573099 L0.0187784431,33.3941637" id="Fill-1"></path>
                    <path d="M55.6686946,24.7792398 C55.5311816,27.293848 53.9275808,28.5512515 51.8658643,28.5512515 C50.2166866,28.5512515 49.0254291,27.4336257 49.0254291,26.316 C49.0254291,24.6861871 50.0791737,24.174 52.0951178,23.7081404 C53.3321477,23.4287836 54.5691776,23.1027018 55.6686946,22.5439883 L55.6686946,24.7792398 L55.6686946,24.7792398 Z M64.373481,18.0734854 C64.373481,13.4166784 64.4650259,8.6202924 53.1030898,8.6202924 C47.4677964,8.6202924 41.1453293,9.73791813 40.870499,16.5367251 L49.3004551,16.5367251 C49.3462275,15.5123509 49.8960838,14.0686433 52.6907465,14.0686433 C54.1566387,14.0686433 55.6686946,14.6740819 55.6686946,16.3038947 C55.6686946,17.840655 54.4316647,18.2132632 53.1946347,18.4458947 C48.5673134,19.3308889 39.7707864,19.0513333 39.7707864,26.6884094 C39.7707864,31.7643509 43.5734212,33.9996023 48.1549701,33.9996023 C51.0871457,33.9996023 53.8818084,33.3476374 55.806012,31.112386 L55.8977525,31.112386 C55.85198,31.7643509 55.9892974,32.7421988 56.2183553,33.3941637 L65.472998,33.3941637 C64.4650259,31.8576023 64.373481,29.8084561 64.373481,27.9923392 L64.373481,18.0734854 L64.373481,18.0734854 Z" id="Fill-2"></path>
                    <path d="M89.6388982,9.22573099 L80.3842555,9.22573099 L76.6273932,23.9409708 L76.5358483,23.9409708 L72.8247585,9.22573099 L63.249513,9.22573099 L71.0380679,33.3941637 L81.7586028,33.3941637 L89.6388982,9.22573099" id="Fill-3"></path>
                    <path d="M88.8351417,33.3941637 L97.906499,33.3941637 L97.906499,9.22573099 L88.8351417,9.22573099 L88.8351417,33.3941637 Z M88.8351417,6.61787135 L97.906499,6.61787135 L97.906499,0.144947368 L88.8351417,0.144947368 L88.8351417,6.61787135 Z" id="Fill-4"></path>
                </g>
            </g>
        </g>
    </g>
</svg>